<svg class="icon" viewBox="0 0 1024 1024" version="1.1" xmlns="http://www.w3.org/2000/svg" width="128" height="128">
    <path d="M472.339571 944.72704v37.9392c5.12256 27.03616 4.1344 40.55552-2.96448 40.55552h-25.11104c-5.696 0-24.8576-9.3696-24.8576-14.58176v-12.6848c0-3.98848 12.5696-23.33952 14.6944-29.0048 2.1248-5.66784 0.7296-14.08-1.96608-22.2208-2.69824-8.14592 0-36.4928 0-41.88672 0-5.39392-15.12448-68.30848-15.12448-81.13408v-53.0176c0-7.46752 7.0144-20.22912 7.0144-26.8416 0-6.61248 3.52-56.56832 3.52-63.70048 0-7.13472-14.79936-50.07872-14.79936-91.03616 0-40.96 2.7392-112.95488 17.0752-157.28384 2.77504-53.40672 4.13952-82.2784 4.096-86.6176-0.064-6.50752-9.89184-39.39328-9.89184-52.0192-5.23776 25.3696-12.82048 43.22304-22.75072 53.5552 0.23552 20.1472-13.5552 49.63584-41.3696 88.45824-19.96544 25.088-31.36 44.4928-34.18624 58.20928 1.33888 13.19936-5.07648 27.7248-19.2512 43.56864-8.49152 20.34688-14.11328 31.45472-16.86272 33.32096-2.74944 1.8688-6.2592 2.60608-10.52672 2.21952-4.83328 7.95648-10.93632 10.61888-18.31424 7.98976-8.7424 1.8432-12.74368-1.2416-12.00896-9.2544-5.8624-1.0624-7.07072-5.4144-3.63008-13.06112s7.71072-15.35488 12.8128-23.12192c-4.75392 0.04352-7.1296-1.4848-7.1296-4.58496 0-4.65152 10.49344-9.3696 15.1552-16.49152 4.6592-7.12192 17.2288-23.71584 23.6416-34.49088 6.4128-10.77248 28.39552-46.87872 32.256-57.47456 3.85792-10.5984 6.63552-40.81152 37.5296-87.3472-1.64608-29.04576 2.6624-52.5312 12.92288-70.4512 2.31424-41.53344 8.94208-67.96288 19.88352-79.29088 10.93888-11.33056 26.60608-16.99328 46.99648-16.99328 16.1792-5.80352 30.04672-14.37696 41.59744-25.71776l0.2048-26.53184c-4.12672-2.6368-6.19264-9.73824-6.19264-21.30944-8.43008-4.69504-11.71968-15.3344-9.86624-31.9104 0.8576-3.76832 3.60192-3.66336 8.23808 0.31744-0.57088-17.90464-0.8448-28.40064-0.82688-31.488C472.375411 24.68608 478.798451 0 510.954611 0c32.15872 0 40.75776 25.18528 40.75776 29.312v31.488c3.21536-2.23232 5.74976-2.23232 7.59808 0 2.7776 3.34848 3.3024 18.04032-7.59808 31.5904-1.6384 9.41312-4.39552 15.77216-8.27648 19.07968V138.752c11.08992 12.928 24.8064 21.9904 41.14944 27.19744 21.10464 0.83968 36.63616 6.73536 46.59712 17.6896 14.94016 16.4352 21.64224 33.02144 21.64224 73.88416 10.82624 27.45856 14.98624 51.8656 12.48256 73.22112 20.04736 31.07328 32.4096 60.38528 37.07648 87.94112 16.73216 31.77728 26.40384 49.90976 29.00992 54.39488 3.91168 6.73024 22.38208 21.52448 30.23104 40.70656 8.67072 8.56064 13.03808 13.70624 13.09952 15.4368 0.09472 2.59328-3.82464 5.10976-8.46336 3.85024l13.96736 24.7296c1.32352 5.51936 0.40448 9.01888-2.76224 10.49856-0.23296 10.1888-4.06784 13.62944-11.49952 10.32448-4.9792 3.33056-9.3184 3.5456-13.01504 0.65024a23.0656 23.0656 0 0 1-7.79264-10.97472c-4.5568 3.32288-7.98976 2.9184-10.29888-1.21344-3.46624-6.1952-18.58304-30.9248-30.62528-53.2992-2.48832-6.30016-4.15744-13.28896-5.00736-20.9664-0.85248-7.68-6.11072-18.432-15.77728-32.26624-15.64928-21.90336-26.68544-37.79328-33.11104-47.6672-9.63584-14.81472-27.08992-40.2432-27.08992-68.1472-14.25152-31.23456-21.87776-49.4592-22.88128-54.6688-1.9712 26.3424-5.12 43.06944-9.45408 50.18368 0.67584 52.39296 1.42848 81.18272 2.26048 86.36672 1.24672 7.77984 35.77344 91.56864 7.1936 243.32544-3.11552 7.77984-2.65216 31.74144 1.38496 71.8848 11.27168 37.8624 10.09408 78.44352-3.53024 121.74336-5.8624 23.0784-8.65792 41.47456-8.38144 55.18848 0.41216 20.56704 1.09312 35.8912-2.08128 40.64256 10.09664 19.34592 15.65184 31.86944 16.6656 37.568 1.5232 8.54528 1.53344 15.98464-21.79072 26.24256-13.89824 0.78592-22.5792 0.97792-26.0352 0.57088-5.19168-0.60928-7.01184-5.07392-4.88704-24.1024 2.1248-19.02848 0-47.21664 0-52.67712 0-5.46048 4.88448-10.0608 4.88448-34.43712V877.696c0-5.59872-13.16096-35.11296-13.16096-58.96704s6.00832-60.50048 6.00832-75.0208c-7.24992-9.4592-11.78112-26.45504-13.5936-50.99264-4.94848-11.06176-6.97344-28.57216-6.06976-52.5312-7.42656-47.5136-13.0944-71.24992-16.9984-71.20896-5.85984 0.06144-9.96096 52.98176-17.25952 71.2064 0.11008 25.472-1.79712 42.14272-5.71904 50.0224-1.61024 23.9104-5.69856 40.37632-12.26752 49.39264-1.83808 6.82752-1.82528 17.74848 0.04096 32.76544 7.09376 32.62464 4.39552 66.84672-8.09472 102.6688-1.63584 12.05504-1.42848 31.2576 0.61952 57.61536 0.29184 3.73248 1.0368 7.75936 2.23744 12.0832z"
    ></path>
</svg>